SplineFontDB: 3.0
FontName: GoudyBookletter1911
FullName: Goudy Bookletter 1911
FamilyName: Goudy Bookletter 1911
Weight: Regular
Copyright: Copyright (c) 2009 Barry Schwartz\n\nPermission is hereby granted, free of charge, to any person obtaining a copy\nof this software and associated documentation files (the "Software"), to deal\nin the Software without restriction, including without limitation the rights\nto use, copy, modify, merge, publish, distribute, sublicense, and/or sell\ncopies of the Software, and to permit persons to whom the Software is\nfurnished to do so, subject to the following conditions:\n\nThe above copyright notice and this permission notice shall be included in\nall copies or substantial portions of the Software.\n\nTHE SOFTWARE IS PROVIDED "AS IS", WITHOUT WARRANTY OF ANY KIND, EXPRESS OR\nIMPLIED, INCLUDING BUT NOT LIMITED TO THE WARRANTIES OF MERCHANTABILITY,\nFITNESS FOR A PARTICULAR PURPOSE AND NONINFRINGEMENT. IN NO EVENT SHALL THE\nAUTHORS OR COPYRIGHT HOLDERS BE LIABLE FOR ANY CLAIM, DAMAGES OR OTHER\nLIABILITY, WHETHER IN AN ACTION OF CONTRACT, TORT OR OTHERWISE, ARISING FROM,\nOUT OF OR IN CONNECTION WITH THE SOFTWARE OR THE USE OR OTHER DEALINGS IN\nTHE SOFTWARE.\n
UComments: "Scaling: cut 3200-dpi samples 640 pixels high, then scale them to 130%." 
Version: 001.000
ItalicAngle: 0
UnderlinePosition: -204
UnderlineWidth: 102
Ascent: 1638
Descent: 410
LayerCount: 3
Layer: 0 0 "Back"  1
Layer: 1 0 "Fore"  0
Layer: 2 0 "backup"  1
NeedsXUIDChange: 1
XUID: [1021 658 797806517 11473725]
FSType: 0
OS2Version: 0
OS2_WeightWidthSlopeOnly: 0
OS2_UseTypoMetrics: 1
CreationTime: 1249326201
ModificationTime: 1249611670
OS2TypoAscent: 0
OS2TypoAOffset: 1
OS2TypoDescent: 0
OS2TypoDOffset: 1
OS2TypoLinegap: 184
OS2WinAscent: 0
OS2WinAOffset: 1
OS2WinDescent: 0
OS2WinDOffset: 1
HheadAscent: 0
HheadAOffset: 1
HheadDescent: 0
HheadDOffset: 1
OS2Vendor: 'PfEd'

StartChar: a
Encoding: 97 97 0
Width: 971
VWidth: 0
Flags: HW
HStem: -41 103<296.094 508.482> -25 133<750.837 858.558> 456 77<394 574> 903 75<286.233 491.91>
VStem: 70 178<109.715 355.328> 574 156<123.706 456 526.87 830.872>
LayerCount: 3
Fore
SplineSet
70 183 m 0xbc
 70 478 334 488 574 533 c 1
 574 664 l 2
 574 882 429 903 382 903 c 0
 225 903 248 709 160 709 c 0
 114 709 80 747 80 793 c 0
 80 875 208 978 423 978 c 0
 592 978 730 893 730 682 c 2
 730 238 l 2
 730 116 804 108 816 108 c 0
 879 108 872 193 909 193 c 0
 925 193 932 180 932 161 c 0
 932 101 864 -25 759 -25 c 0x7c
 638 -25 609 109 609 109 c 1
 609 109 530 -41 340 -41 c 0
 158 -41 70 27 70 183 c 0xbc
248 237 m 0
 248 122 319 62 396 62 c 0xbc
 483 62 574 118 574 227 c 2
 574 456 l 1
 519 453 305 413 275 352 c 0
 257 317 248 281 248 237 c 0
EndSplineSet
EndChar

StartChar: b
Encoding: 98 98 1
Width: 1138
VWidth: 1000
Flags: W
HStem: -26 84<340.286 714.919> 866 118<430.349 691.054> 1597 20G<271.5 291>
VStem: 126 160<107.375 492.88> 155 151<894.937 1427.24> 910 152<281.279 628.997>
LayerCount: 3
Fore
SplineSet
155 1360 m 0xec
 155 1445 12 1453 12 1501 c 0
 12 1529 62 1538 154 1577 c 0
 204 1599 262 1617 281 1617 c 0
 301 1617 306 1600 306 1567 c 2
 306 840 l 1xec
 306 840 418 984 598 984 c 0
 946 984 1062 684 1062 495 c 0
 1062 231 870 -26 522 -26 c 0
 412 -26 320 0 261 0 c 0
 218 0 182 -24 148 -24 c 0
 129 -24 126 -13 126 3 c 0xf4
 126 181 155 309 155 1360 c 0xec
286 243 m 2xf4
 286 128 316 58 542 58 c 0
 777 58 910 238 910 431 c 0
 910 689 721 866 523 866 c 0
 344 866 286 730 286 682 c 2
 286 243 l 2xf4
EndSplineSet
Layer: 2
SplineSet
155 1350 m 4xec
 155 1435 12 1443 12 1491 c 4
 12 1519 62 1528 154 1567 c 4
 204 1589 262 1607 281 1607 c 4
 301 1607 306 1590 306 1557 c 6
 306 830 l 5xec
 306 830 418 974 598 974 c 4
 946 974 1062 674 1062 485 c 4
 1062 221 870 -36 522 -36 c 4
 412 -36 320 -10 261 -10 c 4
 218 -10 182 -34 148 -34 c 4
 129 -34 126 -23 126 -7 c 4xf4
 126 171 155 299 155 1350 c 4xec
286 233 m 6xf4
 286 118 316 48 542 48 c 4
 777 48 910 228 910 421 c 4
 910 679 721 856 523 856 c 4
 344 856 286 720 286 672 c 6
 286 233 l 6xf4
281 1607 m 0
 301 1607 306 1590 306 1557 c 2
 306 830 l 1
 306 830 418 974 598 974 c 0
 946 974 1062 674 1062 485 c 0
 1062 221 870 -36 522 -36 c 0
 412 -36 320 -10 261 -10 c 0
 218 -10 182 -34 148 -34 c 0
 129 -34 126 -23 126 -7 c 0
 126 171 155 299 155 1350 c 0
 155 1442 12 1461 12 1491 c 0
 12 1519 62 1528 154 1567 c 0
 204 1589 262 1607 281 1607 c 0
910 421 m 0
 910 679 721 856 523 856 c 0
 344 856 286 720 286 672 c 2
 286 233 l 2
 286 118 316 48 542 48 c 0
 777 48 910 228 910 421 c 0
EndSplineSet
EndChar

StartChar: c
Encoding: 99 99 2
Width: 951
VWidth: 1000
Flags: W
HStem: -41 145<391.458 706.833> 870 116<368.821 586.949>
VStem: 40 160<316.617 639.499>
LayerCount: 3
Fore
SplineSet
40 442 m 0
 40 711 291 986 543 986 c 0
 726 986 856 865 856 808 c 0
 856 755 812 721 764 721 c 0
 683 721 594 870 461 870 c 0
 294 870 200 696 200 514 c 0
 200 331 312 104 554 104 c 0
 770 104 863 233 890 233 c 0
 903 233 911 226 911 214 c 0
 911 127 749 -41 499 -41 c 0
 204 -41 40 207 40 442 c 0
EndSplineSet
EndChar

StartChar: d
Encoding: 100 100 3
Width: 1124
VWidth: 1000
Flags: W
HStem: -32 144<402.031 668.146> 912 79<332.776 702.509> 1621 20G<906.5 920>
VStem: 29 142<350.798 706.137> 786 142<170.125 854.345 928 1410.68>
LayerCount: 3
Fore
SplineSet
29 487 m 0
 29 720.438828545 164.110385549 991 526 991 c 0
 686 991 786 928 786 928 c 1
 781 1357 l 2
 781 1393 771 1400 701 1427 c 0
 627 1456 607 1458 607 1482 c 0
 607 1495 620 1503 627 1507 c 0
 860 1621 902 1641 911 1641 c 0
 929 1641 937 1628 937 1610 c 0
 937 1537 931 1324 931 897 c 0
 931 674 928 399 928 292 c 0
 928 185 928 168 972 168 c 2
 1032 168 l 2
 1045 168 1082 166 1082 141 c 0
 1082 123 1063 116 947 52 c 0
 851 -1 829 -42 807 -42 c 0
 794 -42 790 -39 790 -12 c 2
 790 105 l 1
 750 70 l 2
 732 55 646 -32 484 -32 c 0
 192 -32 29 229 29 487 c 0
171 550 m 0
 171 277 378 112 564 112 c 0
 745 112 786 210 786 283 c 2
 786 796 l 2
 786 856 643 912 508 912 c 0
 332 912 171 826 171 550 c 0
EndSplineSet
EndChar

StartChar: e
Encoding: 101 101 4
Width: 934
VWidth: 1000
Flags: HW
HStem: -33 146<377.009 684.293> 882 114<305.469 535.021>
VStem: 50 145<406.622 713.672> 658 219<691.642 783.563>
LayerCount: 3
Fore
SplineSet
50 482 m 0
 50 807.5625 258.98125 996 492 996 c 0
 708 996 877 787 877 736 c 0
 877 700 807 665 786 657 c 2
 209 441 l 1
 211 413 246 113 551 113 c 0
 759 113 851 255 890 255 c 0
 898 255 908 250 908 234 c 0
 908 155 720 -33 497 -33 c 0
 308 -33 50 87 50 482 c 0
195 585 m 0
 195 565 196 548 198 534 c 1
 604 688 l 2
 636 700 658 707 658 727 c 0
 658 759 525 882 384 882 c 0
 234 882 195 697 195 585 c 0
EndSplineSet
EndChar

StartChar: f
Encoding: 102 102 5
Width: 620
VWidth: 1000
Flags: HMW
HStem: 0 90<26.9247 177.166 349.853 495.725> 849 105<34.4079 192 344 608.716> 1509 125<512.603 747.348>
VStem: 192 150<97.8383 849 954 1249.37>
LayerCount: 3
Fore
SplineSet
342 421 m 2
 342 343 340 283 340 236 c 0
 340 124 351 96 426 90 c 0
 473 86 496 79 496 42 c 0
 496 -9 472 -10 448 -10 c 0
 435 -10 315 0 270 0 c 0
 235 0 83 -10 72 -10 c 0
 40 -10 26 -5 26 32 c 0
 26 82 51 83 122 90 c 0
 188 96 193 147 193 392 c 0
 193 466 192 474 192 506 c 2
 192 849 l 1
 65 849 l 2
 50 849 34 855 34 898 c 0
 34 940 47 954 62 954 c 2
 197 954 l 1
 197 994 l 2
 197 1086 210 1273 323 1422 c 0
 412 1540 537 1634 678 1634 c 0
 789 1634 820 1581 820 1542 c 0
 820 1500 785 1459 726 1459 c 0
 664 1459 636 1509 568 1509 c 0
 396 1509 339 1266 339 1009 c 2
 339 954 l 1
 583 954 l 2
 598 954 609 936 609 900 c 0
 609 855 595 849 580 849 c 2
 344 849 l 1
 343 623 342 561 342 511 c 2
 342 421 l 2
EndSplineSet
EndChar

StartChar: g
Encoding: 103 103 6
Width: 1010
VWidth: 1000
Flags: HMW
HStem: -558 106<329.266 746.929> -102 148<244.795 695.668> 237 90<344.324 586.42> 900 77<304.193 531.671> 1000 20G<852.5 897>
VStem: 54 122<-331.761 -143.192> 59 166<471.326 761.846> 94 122<81.3538 199.121> 658 170<435.58 761.961> 826 139<-377.909 -183.019>
LayerCount: 3
Fore
SplineSet
59 585 m 0
 59 754 176 977 432 977 c 0
 644 977 671 885 734 885 c 0
 825 885 826 1020 879 1020 c 0
 915 1020 967 979 967 931 c 0
 967 834 814 806 779 806 c 1
 779 792 828 716 828 611 c 0
 828 399 660 237 444 237 c 0
 368 237 343 245 313 245 c 0
 272 245 216 204 216 153 c 0
 216 51 335 54 598 46 c 0
 769 41 876 27 937 -94 c 0
 955 -129 965 -170 965 -212 c 0
 965 -338 893 -558 513 -558 c 0
 136 -558 54 -394 54 -288 c 0
 54 -127 182 -70 182 -70 c 1
 182 -70 94 -12 94 92 c 0
 94 207 248 291 248 291 c 1
 248 291 59 385 59 585 c 0
176 -220 m 0
 176 -366 356 -452 568 -452 c 0
 764 -452 826 -349 826 -282 c 0
 826 -114 605 -133 312 -106 c 0
 297 -105 285 -102 273 -102 c 0
 218 -102 176 -170 176 -220 c 0
420 900 m 0
 283 900 225 788 225 663 c 0
 225 505 316 327 453 327 c 0
 594 327 658 417 658 560 c 0
 658 772 544 900 420 900 c 0
EndSplineSet
EndChar

StartChar: h
Encoding: 104 104 7
Width: 1159
VWidth: 1000
Flags: HMW
HStem: 0 90<38.1246 166.628 344.318 527.725 651.171 818.192 997.984 1122.72> 876 105<457.457 706.629> 1620 20G<298 324.5>
VStem: 185 150<97.7447 799.932 855 1411.63> 833 159<94.8454 702.661>
LayerCount: 3
Fore
SplineSet
833 372 m 0
 833 767 727 876 568 876 c 0
 496 876 342 818 342 721 c 0
 342 686 335 561 335 511 c 2
 335 421 l 2
 335 343 336 283 336 236 c 0
 336 124 343 96 418 90 c 0
 465 86 528 87 528 42 c 0
 528 -9 504 -10 480 -10 c 0
 467 -10 307 0 262 0 c 0
 227 0 100 -10 89 -10 c 0
 57 -10 38 -8 38 37 c 0
 38 73 43 85 114 90 c 0
 174 94 185 147 185 392 c 0
 185 746 190 552 190 851 c 0
 190 1074 185 1246 181 1383 c 0
 180 1414 38 1431 38 1474 c 0
 38 1495 77 1514 120 1539 c 0
 229 1603 284 1640 312 1640 c 0
 337 1640 348 1621 348 1586 c 2
 342 855 l 1
 342 855 459 981 636 981 c 0
 700 981 917 952 970 649 c 0
 982 579 989 425 992 326 c 0
 998 112 983 95 1053 90 c 0
 1100 86 1123 79 1123 42 c 0
 1123 -9 1099 -10 1075 -10 c 0
 1062 -10 959 0 914 0 c 0
 879 0 707 -10 696 -10 c 0
 664 -10 650 -5 650 32 c 0
 650 88 695 83 766 90 c 0
 821 95 833 124 833 372 c 0
EndSplineSet
EndChar

StartChar: i
Encoding: 105 105 8
Width: 605
VWidth: 1000
Flags: MW
HStem: 0 90<401.612 561.574> 976 20G<359.5 383> 1311 174<292.443 446.463>
VStem: 238 151<104.959 767.181> 282 178<1324.86 1474.15>
LayerCount: 3
Fore
SplineSet
318 0 m 0
 243 0 256 -5 111 -5 c 0
 81 -5 51 8 51 32 c 0
 51 144 228 15 233 197 c 2
 233 197 238 341 238 368 c 0
 238 453 237 566 237 714 c 0
 237 751 237 752 90 812 c 0
 78 817 62 824 62 842 c 0
 62 879 104 886 220 930 c 0
 294 958 346 996 373 996 c 0
 393 996 396 988 396 970 c 0
 396 910 389 852 389 368 c 0
 389 117 400 102 450 94 c 0
 523 82 563 86 563 36 c 0
 563 19 545 -5 497 -5 c 0
 425 -5 336 0 318 0 c 0
282 1398 m 0
 282 1441 311 1485 373 1485 c 0
 417 1485 460 1457 460 1401 c 0
 460 1350 416 1311 367 1311 c 0
 311 1311 282 1354 282 1398 c 0
EndSplineSet
EndChar

StartChar: j
Encoding: 106 106 9
Width: 721
VWidth: 1000
Flags: W
HStem: -546 194<68.7526 266.745> 974 20G<468.5 492> 1281 169<402.584 554.715>
VStem: 366 150<-269.984 778.855> 393 173<1292.95 1439.99>
LayerCount: 3
Fore
SplineSet
48 -464 m 0xf0
 48 -381 118 -352 158 -352 c 0
 188 -352 221 -366 252 -366 c 0
 363 -366 366 -212 366 -30 c 0
 366 94 361 152 361 739 c 0
 361 792 201 803 201 853 c 0
 201 884 224 886 340 930 c 0
 414 958 455 994 482 994 c 0
 502 994 511 978 511 960 c 0
 511 -42 516 209 516 -79 c 0
 516 -130 514 -217 474 -270 c 0
 302 -500 232 -546 134 -546 c 0
 78 -546 48 -506 48 -464 c 0xf0
393 1364 m 0xe8
 393 1422 437 1450 481 1450 c 0
 524 1450 566 1426 566 1369 c 0
 566 1317 523 1281 480 1281 c 0
 423 1281 393 1320 393 1364 c 0xe8
EndSplineSet
EndChar

StartChar: k
Encoding: 107 107 10
Width: 1079
VWidth: 1000
Flags: MW
HStem: 0 90<58.2063 169.473 350.166 507.98 889.208 1017.98> 859 92<768.711 966.559> 1596 20G<293 320.5>
VStem: 175 158<91.3307 378 496 1457.14>
LayerCount: 3
Fore
SplineSet
181 1398 m 2
 181 1454 56 1472 56 1508 c 0
 56 1532 95 1544 108 1548 c 2
 108 1548 279 1616 307 1616 c 0
 334 1616 339 1591 339 1568 c 2
 331 496 l 1
 496 669 626 785 626 830 c 0
 626 891 523 866 523 918 c 0
 523 927 528 951 585 951 c 0
 601 951 631 946 739 946 c 0
 840 946 890 951 908 951 c 0
 943 951 968 947 968 916 c 0
 968 871 929 881 845 859 c 0
 789 844 694 751 620 675 c 2
 514 565 l 1
 740 279 l 1
 906 73 938 87 978 77 c 0
 995 73 1018 61 1018 36 c 0
 1018 19 1000 -5 952 -5 c 0
 916 -5 863 0 773 0 c 0
 757 0 643 -5 610 -5 c 0
 580 -5 550 8 550 32 c 0
 550 102 659 54 659 117 c 0
 659 178 453 421 418 466 c 1
 333 378 l 1
 338 94 322 89 455 78 c 0
 480 76 508 61 508 36 c 0
 508 19 490 -5 442 -5 c 0
 370 -5 330 0 263 0 c 0
 224 0 161 -5 118 -5 c 0
 88 -5 58 8 58 32 c 0
 58 73 90 72 109 77 c 0
 175 94 175 107 175 203 c 2
 181 1398 l 2
EndSplineSet
EndChar

StartChar: l
Encoding: 108 108 11
Width: 531
VWidth: 1000
Flags: HMW
HStem: 0 90<350.902 483.831> 1619 20G<292 313.5>
VStem: 181 145<102.478 1403.93>
LayerCount: 3
Fore
SplineSet
253 0 m 0
 236 0 119 -5 86 -5 c 0
 56 -5 26 8 26 32 c 0
 26 118 183 28 183 187 c 2
 181 1352 l 2
 181 1410 35 1435 35 1474 c 0
 35 1492 83 1521 132 1551 c 0
 251 1622 277 1639 307 1639 c 0
 320 1639 329 1613 329 1571 c 2
 327 1083 l 2
 327 987 326 946 326 912 c 0
 326 800 333 890 333 266 c 0
 333 126 336 99 435 79 c 0
 474 71 484 55 484 33 c 0
 484 16 470 -5 422 -5 c 0
 409 -5 317 0 253 0 c 0
EndSplineSet
EndChar

StartChar: m
Encoding: 109 109 12
Width: 1651
VWidth: 1000
Flags: MW
HStem: 0 90<40.364 175.27 343.04 507.755 894.358 1066.88 1467.69 1612.91> 876 112<431.853 644.082 959.744 1205.7>
VStem: 180 143<99.4124 804.76> 737 149<99.6207 611.759> 1298 149<100.965 748.333>
LayerCount: 3
Fore
SplineSet
1368 0 m 0
 1328 0 1221 -5 1191 -5 c 0
 1161 -5 1131 8 1131 32 c 0
 1131 128 1298 34 1298 182 c 2
 1298 465 l 2
 1298 856 1148 884 1080 884 c 0
 918 884 868 774 868 718 c 0
 868 651 886 476 886 336 c 2
 886 181 l 2
 886 93 917 91 1024 82 c 0
 1049 80 1067 61 1067 36 c 0
 1067 19 1056 -5 998 -5 c 0
 984 -5 861 0 812 0 c 0
 794 0 665 -5 628 -5 c 0
 589 -5 559 8 559 32 c 0
 559 141 737 13 737 204 c 0
 737 217 729 487 723 618 c 0
 719 694 710 782 645 831 c 0
 606 861 575 876 510 876 c 0
 414 876 323 810 323 703 c 2
 323 270 l 2
 323 143 337 105 390 90 c 0
 423 81 508 87 508 36 c 0
 508 19 490 -5 442 -5 c 0
 378 -5 336 0 263 0 c 0
 230 0 149 -5 100 -5 c 0
 70 -5 40 8 40 32 c 0
 40 73 72 77 91 82 c 0
 170 102 180 86 180 196 c 0
 180 213 174 574 174 762 c 0
 174 804 58 837 58 873 c 0
 58 893 109 914 160 938 c 1
 214 968 l 1
 253 992 278 1005 290 1005 c 0
 312 1005 315 984 315 973 c 2
 315 816 l 1
 315 816 402 988 572 988 c 0
 778 988 852 814 852 814 c 1
 852 814 942 1000 1113 1000 c 0
 1155 1000 1201 989 1252 962 c 0
 1386 891 1439 821 1447 486 c 0
 1457 86 1437 104 1560 88 c 0
 1600 83 1613 61 1613 36 c 0
 1613 19 1595 -5 1547 -5 c 0
 1475 -5 1440 0 1368 0 c 0
EndSplineSet
Layer: 2
SplineSet
510 876 m 4
 414 876 328 809 328 703 c 6
 328 147 l 6
 328 80 356 98 458 82 c 4
 480 79 501 62 501 44 c 4
 501 2 477 0 452 -0 c 6
 81 0 l 6
 54 0 40 14 40 44 c 4
 40 120 183 53 182 143 c 6
 174 762 l 6
 174 815.149816116 59 814.3359375 59 868 c 4
 59 893.8953125 267 1001 292 1001 c 4
 310 1001 323 983 323 971 c 6
 323 884 l 6
 323 877 325 870 332 870 c 4
 344 870 449 988 588 988 c 4
 750 988 858 850 858 850 c 5
 858 850 931 996 1108 996 c 4
 1451 996 1451 687 1451 452 c 6
 1451 159 l 6
 1451 32 1609 132 1609 38 c 4
 1609 17 1608 0 1578 0 c 6
 1176 0 l 6
 1143 0 1136 19 1136 43 c 4
 1136 134 1303 29 1303 151 c 6
 1303 465 l 6
 1303 856 1133 884 1080 884 c 4
 918 884 876 780 876 748 c 4
 876 645 884 337 886 181 c 5
 886 9 1058 145 1058 31 c 4
 1058 10 1050 0 1025 0 c 6
 596 0 l 6
 568 0 548 8 548 38 c 4
 548 75 557 78 654 94 c 4
 701 102 737 105 737 204 c 4
 737 217 729 487 723 618 c 4
 719 694 710 782 645 831 c 4
 606 861 575 876 510 876 c 4
EndSplineSet
EndChar

StartChar: n
Encoding: 110 110 13
Width: 1171
VWidth: 1000
Flags: MW
HStem: 0 90<44.2227 181.799 343.134 505.129 672.255 839.087 1000.02 1124.97> 880 119<507.812 737.999>
VStem: 186 147<94.7193 782.395> 844 148<88.9211 771.807>
LayerCount: 3
Fore
SplineSet
341 813 m 1
 348 819 484 999 663 999 c 0
 723 999 789 979 860 924 c 0
 944 859 990 795 990 448 c 0
 990 375 992 301 992 230 c 0
 992 85 1026 91 1057 85 c 0
 1091 79 1127 74 1127 36 c 0
 1127 19 1116 -5 1058 -5 c 0
 1044 -5 971 0 922 0 c 0
 904 0 775 -5 738 -5 c 0
 699 -5 669 8 669 32 c 0
 669 83 727 73 776 80 c 0
 812 85 844 105 844 186 c 0
 844 195 847 326 847 452 c 0
 847 515 844 576 844 620 c 0
 844 804 707 880 590 880 c 0
 457 880 333 783 333 672 c 2
 333 283 l 2
 333 156 337 103 390 88 c 0
 423 79 508 87 508 36 c 0
 508 19 490 -5 442 -5 c 0
 378 -5 336 0 263 0 c 0
 230 0 149 -5 100 -5 c 0
 70 -5 40 8 40 32 c 0
 40 92 137 68 165 94 c 0
 181 109 186 146 186 230 c 0
 186 247 184 554 184 742 c 0
 184 784 43 816 43 859 c 0
 43 888 96 907 124 920 c 0
 233 973 282 1010 300 1010 c 0
 334 1010 341 981 341 897 c 2
 341 813 l 1
EndSplineSet
EndChar

StartChar: o
Encoding: 111 111 14
Width: 1057
VWidth: 0
Flags: W
HStem: -24 102<380.824 698.705> 897 104<360.044 675.269>
VStem: 38 173<276.523 714.413> 843 155<248.247 706.693>
LayerCount: 3
Fore
SplineSet
526 897 m 0
 312 897 211 747 211 495 c 0
 211 285 323 78 528 78 c 0
 786 78 843 270 843 482 c 0
 843 745 703 897 526 897 c 0
536 1001 m 0
 789 1001 998 840 998 500 c 0
 998 134 795 -24 512 -24 c 0
 222 -24 38 218 38 494 c 0
 38 770 224 1001 536 1001 c 0
EndSplineSet
EndChar

StartChar: p
Encoding: 112 112 15
Width: 1118
VWidth: 1000
Flags: MW
HStem: -521 90<23.9173 173.53 353.013 561.917> -9 70<391.95 719.287> 861 136<476.145 704.952>
VStem: 179 143<-257.306 0 107.482 757.424> 907 143<296.569 641.616>
LayerCount: 3
Fore
SplineSet
623 997 m 0
 921 997 1049 704 1049 521 c 0
 1049 369 979 184 880 100 c 0
 781 16 659 -9 559 -9 c 0
 455 -9 333 0 333 0 c 1
 339 -328 l 2
 341 -430 403 -419 510 -428 c 0
 535 -430 562 -444 562 -474 c 0
 562 -491 550 -524 492 -524 c 0
 478 -524 384 -521 282 -521 c 0
 229 -521 171 -530 101 -530 c 0
 61 -530 22 -526 22 -490 c 0
 22 -463 36 -448 86 -439 c 0
 133 -430 186 -436 186 -301 c 0
 186 -267 182 370 179 704 c 0
 179 716 178 746 150 758 c 0
 68 792 37 803 37 828 c 0
 37 854 88 878 156 922 c 1
 208 957 257 993 284 993 c 0
 295 993 321 992 321 908 c 2
 321 780 l 1
 321 780 423 997 623 997 c 0
570 861 m 0
 473 861 322 811 322 598 c 2
 322 330 l 2
 322 223 325 169 335 140 c 0
 354 83 521 61 583 61 c 0
 751 61 907 211 907 433 c 0
 907 721 704 861 570 861 c 0
EndSplineSet
EndChar

StartChar: q
Encoding: 113 113 16
Width: 1186
VWidth: 1000
Flags: HMW
HStem: -517 90<631.509 810.814 988.584 1142.84> -16 138<408.492 698.52> 920 80<376.736 784.978>
VStem: 69 117<357.463 723.417> 824 158<-412.949 128 173.033 861.092>
LayerCount: 3
Fore
SplineSet
564 920 m 0
 318 920 186 782 186 570 c 0
 186 326 336 122 602 122 c 0
 821 122 824 236 824 333 c 2
 824 340 l 2
 824 392 817 358 817 781 c 0
 817 846 759 920 564 920 c 0
941 -517 m 0
 861 -517 748 -530 706 -530 c 0
 666 -530 627 -526 627 -490 c 0
 627 -471 641 -445 691 -439 c 0
 778 -429 826 -418 826 -296 c 0
 826 -138 821 128 821 128 c 1
 810 119 721 -16 518 -16 c 0
 213 -16 69 218 69 495 c 0
 69 772 232 1000 580 1000 c 0
 670 1000 763 993 825 993 c 0
 878 993 930 1018 954 1018 c 0
 980 1018 996 987 996 946 c 0
 996 894 983 780 982 678 c 2
 979 -308 l 2
 979 -395 989 -416 1093 -425 c 0
 1118 -427 1143 -439 1143 -469 c 0
 1143 -486 1135 -519 1077 -519 c 0
 1037 -519 987 -517 941 -517 c 0
EndSplineSet
EndChar

StartChar: r
Encoding: 114 114 17
Width: 847
VWidth: 1000
Flags: MW
HStem: 0 90<75.024 206.917 404.744 597.896> 846 154<525.5 737.681>
VStem: 220 145<105.041 756.549>
LayerCount: 3
Fore
SplineSet
372 270 m 2
 375 98 400 85 524 73 c 0
 562 69 598 72 598 36 c 0
 598 19 590 -5 532 -5 c 0
 528 -5 380 0 308 0 c 0
 239 0 152 -5 135 -5 c 0
 102 -5 75 8 75 32 c 0
 75 69 108 70 128 72 c 0
 198 78 221 96 221 202 c 2
 220 722 l 2
 220 819 84 800 84 848 c 0
 84 879 125 893 277 976 c 1
 277 976 305 995 331 995 c 0
 351 995 365 983 365 939 c 2
 365 804 l 1
 365 804 546 1000 685 1000 c 0
 751 1000 794 964 794 919 c 0
 794 867 738 810 696 810 c 0
 614 810 604 846 550 846 c 0
 501 846 438 788 404 752 c 0
 386 733 365 716 365 669 c 2
 372 270 l 2
EndSplineSet
EndChar

StartChar: s
Encoding: 115 115 18
Width: 797
VWidth: 1000
Flags: HW
HStem: -24 99<263.649 570.292> 882 78<226.082 478.487>
VStem: 67 71<185.819 371.954> 93 99<647.663 852.838> 550 92<684.177 824.943> 628 109<129.666 334.715>
LayerCount: 3
Fore
SplineSet
389 -24 m 0xd4
 279 -24 55 47 55 127 c 0
 55 154 67 269 67 296 c 0
 67 354 84 372 102 372 c 0
 138 372 116 309 138 242 c 0
 170 143 330 75 435 75 c 0
 527 75 628 123 628 240 c 0xe4
 628 388 378 420 306 440 c 0
 210 467 93 483 93 704 c 0
 93 831 170 960 365 960 c 0
 433 960 516 938 527 938 c 0
 547 938 573 967 600 967 c 0
 630 967 627 940 634 838 c 0
 638 781 642 740 642 734 c 0
 642 705 635 673 617 673 c 0
 582 673 577 732 550 780 c 0xd8
 522 829 430 882 338 882 c 0
 219 882 192 814 192 742 c 0
 192 629 308 608 432 576 c 0
 573 539 737 525 737 281 c 0
 737 98 569 -24 389 -24 c 0xd4
EndSplineSet
EndChar

StartChar: t
Encoding: 116 116 19
Width: 801
VWidth: 1000
Flags: W
HStem: -33 144<392.032 581.73> 831 123<392 719.21>
VStem: 196 154<152.699 831>
LayerCount: 3
Fore
SplineSet
769 215 m 0
 769 144 591 -33 432 -33 c 0
 293 -33 196 33 196 301 c 0
 196 411 207 688 207 811 c 2
 207 831 l 1
 119 831 l 2
 54 831 45 848 45 875 c 0
 45 913 210 967 333 1181 c 0
 340 1192 355 1221 376 1221 c 0
 390 1221 402 1210 402 1181 c 0
 402 1149 392 1014 392 982 c 2
 392 954 l 1
 684 954 l 2
 706 954 721 947 721 928 c 2
 721 898 l 2
 721 870 715 831 670 831 c 2
 359 831 l 1
 356 673 350 372 350 356 c 0
 350 157 406 111 484 111 c 0
 641 111 688 251 735 251 c 0
 745 251 769 244 769 215 c 0
EndSplineSet
EndChar

StartChar: u
Encoding: 117 117 20
Width: 1171
VWidth: 1000
Flags: HWO
HStem: -31 114<452.186 713.083> 900 76<667.021 810.874>
VStem: 164 156<442.723 876.834> 824 157<178.075 882.986>
LayerCount: 3
Fore
SplineSet
542 -31 m 0
 419 -31 164 38 164 424 c 0
 164 496 166 778 166 814 c 0
 166 900 46 871 46 932 c 0
 46 941 55 954 75 956 c 0
 144 962 275 973 282 973 c 0
 300 973 320 965 320 932 c 0
 327 306 318 342 368 233 c 0
 409 143 481 83 593 83 c 0
 766 83 824 230 824 328 c 2
 824 780 l 2
 824 886 809 880 694 900 c 0
 672 904 667 917 667 939 c 0
 667 968 696 975 717 976 c 2
 949 979 l 2
 981 979 992 966 992 944 c 2
 981 328 l 1
 981 138 l 1
 1065 138 l 2
 1117 138 1123 125 1123 111 c 2
 1123 90 l 2
 1123 69 1109 60 965 14 c 0
 931 3 888 -18 862 -18 c 0
 853 -18 847 -5 847 2 c 2
 847 120 l 1
 845 119 727 -31 542 -31 c 0
EndSplineSet
EndChar

StartChar: v
Encoding: 118 118 21
Width: 1155
VWidth: 1000
Flags: MW
HStem: -40 21G<564 660.5> 856 90<81.5 118 429 455.5 760.5 785.5 1032.5 1078>
LayerCount: 3
Fore
SplineSet
617 -40 m 0
 511 -40 235 678 151 830 c 8
 125 876 48 854 48 918 c 0
 48 927 53 951 110 951 c 0
 126 951 161 946 269 946 c 0
 370 946 420 951 438 951 c 0
 473 951 508 947 508 916 c 0
 508 838 353 912 353 795 c 0
 353 717 410 621 470 508 c 0
 628 212 636 205 649 205 c 0
 673 205 861 602 861 807 c 0
 861 900 718 838 718 916 c 0
 718 947 743 951 778 951 c 0
 793 951 838 946 927 946 c 4
 962 946 1019 951 1046 951 c 0
 1110 951 1118 932 1118 918 c 0
 1118 853 1021 889 993 818 c 0
 948 704 704 -40 617 -40 c 0
EndSplineSet
EndChar

StartChar: w
Encoding: 119 119 22
Width: 1773
VWidth: 1000
Flags: MW
HStem: -40 21G<563.5 617.5 1185.5 1255.5> 856 90<71.5 108 409 435.5 620 654.5 1013 1075.5 1345.5 1370.5 1642.5 1688>
LayerCount: 3
Fore
SplineSet
1128 916 m 0
 1128 841 953 908 953 795 c 0
 953 724 1081 496 1113 438 c 0
 1202 274 1237 205 1259 205 c 0
 1283 205 1471 602 1471 807 c 0
 1471 900 1303 838 1303 916 c 0
 1303 947 1328 951 1363 951 c 0
 1378 951 1448 946 1537 946 c 0
 1572 946 1629 951 1656 951 c 0
 1720 951 1728 932 1728 918 c 0
 1728 853 1626 890 1598 819 c 0
 1583 782 1563 678 1519 556 c 0
 1427 300 1289 -40 1222 -40 c 0
 1149 -40 1007 246 890 510 c 1
 797 252 648 -40 587 -40 c 0
 540 -40 448 109 367 286 c 0
 270 497 182 747 136 830 c 0
 110 876 38 854 38 918 c 0
 38 927 43 951 100 951 c 0
 116 951 151 946 259 946 c 0
 360 946 400 951 418 951 c 0
 453 951 470 943 470 912 c 0
 470 842 333 910 333 812 c 0
 333 760 376 666 440 522 c 0
 576 215 607 184 620 184 c 0
 640 184 774 440 824 650 c 1
 800 704 751 804 736 830 c 0
 706 886 573 861 573 918 c 0
 573 938 594 951 646 951 c 0
 663 951 824 946 891 946 c 0
 957 946 968 951 1058 951 c 0
 1093 951 1128 947 1128 916 c 0
EndSplineSet
EndChar

StartChar: x
Encoding: 120 120 23
Width: 1044
VWidth: 1000
Flags: MW
HStem: 0 90<874.159 992.764> 856 90<81.5 118 404 430.5 640.5 665.5 906.5 946>
LayerCount: 3
Fore
SplineSet
445 483 m 1
 181 836 194 820 179 835 c 0
 109 907 48 863 48 918 c 0
 48 927 53 951 110 951 c 0
 126 951 161 946 269 946 c 0
 370 946 395 951 413 951 c 0
 448 951 483 947 483 916 c 0
 483 856 381 900 381 836 c 0
 381 800 528 602 528 602 c 1
 528 602 683 796 683 842 c 0
 683 902 593 862 593 916 c 0
 593 947 623 951 658 951 c 0
 673 951 733 946 787 946 c 0
 822 946 897 951 916 951 c 0
 976 951 978 932 978 918 c 0
 978 842 850 915 762 794 c 2
 574 536 l 1
 852 135 868 111 934 81 c 0
 966 66 993 67 993 34 c 0
 993 17 973 -5 927 -5 c 0
 855 -5 840 0 768 0 c 0
 728 0 641 -5 611 -5 c 0
 581 -5 556 3 556 27 c 0
 556 90 676 68 676 116 c 0
 676 155 554 337 490 421 c 1
 423 331 293 183 293 135 c 0
 293 55 416 88 416 24 c 0
 416 7 400 -5 352 -5 c 0
 329 -5 296 0 223 0 c 0
 190 0 131 -5 100 -5 c 0
 70 -5 40 0 40 32 c 0
 40 79 89 52 160 123 c 0
 206 170 286 270 445 483 c 1
EndSplineSet
EndChar

StartChar: y
Encoding: 121 121 24
Width: 1155
VWidth: 1000
Flags: MW
HStem: -494 21G<223 288.5> 856 90<81.5 118 429 455.5 740.5 765.5 1022.5 1068>
LayerCount: 3
Fore
SplineSet
823 776 m 0
 823 922 698 830 698 916 c 0
 698 947 723 951 758 951 c 0
 773 951 818 946 907 946 c 0
 942 946 1009 951 1036 951 c 0
 1100 951 1108 932 1108 918 c 0
 1108 845 1013 889 983 818 c 0
 924 677 642 -34 470 -286 c 0
 396 -396 331 -494 246 -494 c 0
 200 -494 166 -461 166 -406 c 0
 166 -299 312 -272 372 -219 c 0
 444 -156 526 -5 526 6 c 0
 526 11 339 479 146 830 c 8
 121 875 48 854 48 918 c 0
 48 927 53 951 110 951 c 0
 126 951 161 946 269 946 c 0
 370 946 420 951 438 951 c 0
 473 951 508 947 508 916 c 0
 508 838 365 898 365 828 c 0
 365 696 604 212 626 212 c 0
 629 212 823 585 823 776 c 0
EndSplineSet
EndChar

StartChar: z
Encoding: 122 122 25
Width: 849
VWidth: 1000
Flags: W
HStem: 0 156<198 673.68> 818 140<197.711 561>
VStem: 674 94<-191.935 -10.0846> 708 73<174.592 200.546 201.672 346.654>
LayerCount: 3
Fore
SplineSet
154 1047 m 0xe0
 215 1047 163 958 271 958 c 2
 705 958 l 2
 727 958 749 957 749 941 c 0
 749 927 732 900 697 852 c 2
 326 340 l 2
 282 280 240 218 198 156 c 1
 543 156 l 2
 671 156 692 156 708 280 c 0
 713 317 716 347 750 347 c 0
 761 347 781 336 781 295 c 0xd0
 781 250 774 215 774 201 c 0
 774 192 768 139 768 139 c 2
 744 -113 767 -195 706 -195 c 0
 687 -195 674 -184 674 -156 c 0
 674 -83 676 -92 676 -65 c 0
 676 -32 670 0 527 0 c 2
 89 0 l 2
 40 0 40 26 40 35 c 0
 40 79 51 90 55 96 c 2
 561 818 l 1
 289 818 l 2
 124 818 179 668 114 668 c 0
 96 668 89 704 89 726 c 0
 89 733 115 790 115 920 c 2
 115 946 l 2
 115 973 117 1047 154 1047 c 0xe0
EndSplineSet
EndChar

StartChar: ae
Encoding: 230 230 53
Width: 1523
VWidth: 0
Flags: HW
HStem: -36 102<291.252 500.16> -33 146<928.997 1235.18> 463 70<424.751 584> 915 81<284.666 519.865 866.675 1056.91>
VStem: 82 160<116.593 366.784> 584 149<525.337 763.612> 1211 217<673.989 794.357>
LayerCount: 3
Fore
SplineSet
1101 113 m 0x7e
 1306 113 1376 250 1426 250 c 0
 1435 250 1451 242 1451 222 c 0
 1451 150 1242 -33 1047 -33 c 0x7e
 742 -33 672 182 672 182 c 1
 672 182 570 -36 326 -36 c 0xbe
 132 -36 82 94 82 208 c 0
 82 274 105 407 240 463 c 0
 315 494 400 498 584 533 c 1
 584 664 l 2
 584 890 486 915 392 915 c 0
 219 915 238 716 156 716 c 0
 110 716 88 764 88 810 c 0
 88 897 247 996 411 996 c 0
 523 996 636 950 703 823 c 1
 790 939 920 996 1042 996 c 0
 1280 996 1428 776 1428 724 c 0
 1428 672 1324 647 1274 630 c 2
 746 454 l 1
 748 426 796 113 1101 113 c 0x7e
951 904 m 0
 798 904 733 704 733 548 c 0
 733 533 734 524 734 524 c 1
 1159 671 l 2
 1191 682 1211 699 1211 721 c 0
 1211 775 1075 904 951 904 c 0
242 274 m 0
 242 159 288 66 396 66 c 0xbe
 483 66 584 118 584 328 c 2
 584 463 l 1
 313 415 242 379 242 274 c 0
EndSplineSet
EndChar

StartChar: oe
Encoding: 339 339 54
Width: 1858
VWidth: 0
Flags: HW
HStem: -41 154<1248.19 1550.65> -41 97<418.308 744.082> 926 75<421.561 707.646 1183.58 1359.01>
VStem: 74 170<267.178 731.923> 896 166<546.705 718.266> 1517 239<697.336 809.727>
LayerCount: 3
Fore
SplineSet
564 926 m 0x7c
 350 926 244 747 244 495 c 0
 244 285 345 56 576 56 c 0
 834 56 896 268 896 480 c 0
 896 743 769 926 564 926 c 0x7c
1065 546 m 1
 1480 700 l 2
 1512 712 1517 722 1517 742 c 0
 1517 772 1403 913 1262 913 c 0
 1111 913 1062 721 1062 596 c 0
 1062 578 1063 561 1065 546 c 1
996 195 m 1
 996 195 885 -41 564 -41 c 0x7c
 222 -41 74 218 74 494 c 0
 74 738 192 1001 572 1001 c 0
 892 1001 977 792 977 792 c 1
 977 792 1082 1001 1344 1001 c 0
 1617 1001 1756 772 1756 726 c 0
 1756 690 1698 671 1677 664 c 2
 1073 460 l 1
 1075 432 1116 113 1421 113 c 0
 1629 113 1721 255 1760 255 c 0
 1768 255 1778 250 1778 234 c 0
 1778 155 1590 -41 1367 -41 c 0xbc
 1053 -41 996 195 996 195 c 1
EndSplineSet
EndChar

StartChar: f_f
Encoding: 65536 -1 55
Width: 1178
VWidth: 0
Flags: MW
HStem: 0 90<349.204 490.913 859.875 1010.93> 864 90<64.0846 194 339 689 839 1148.99> 1506 93<497.188 716.961> 1529 120<1001.28 1247.5>
VStem: 190 147<95.1935 864 954 1211.43> 689 148<102.537 864 954 1286.47>
LayerCount: 3
Fore
SplineSet
690 1599 m 0
 813 1599 898 1536 898 1536 c 1
 976 1609 1087 1649 1184 1649 c 0
 1295 1649 1326 1596 1326 1557 c 0
 1326 1515 1291 1474 1232 1474 c 0
 1170 1474 1142 1529 1074 1529 c 0
 902 1529 834 1266 834 1009 c 2
 834 954 l 1
 1123 954 l 2
 1138 954 1149 946 1149 910 c 0
 1149 865 1138 864 1123 864 c 2
 839 864 l 1
 838 638 837 561 837 511 c 2
 837 339 l 2
 837 96 857 95 960 82 c 0
 1000 77 1011 61 1011 36 c 0
 1011 19 993 -5 945 -5 c 0
 873 -5 837 0 765 0 c 0
 725 0 633 -5 603 -5 c 0
 573 -5 543 8 543 32 c 0
 543 112 688 40 688 182 c 0
 688 506 689 474 689 506 c 2
 689 864 l 1
 339 864 l 1
 338 638 337 561 337 511 c 0
 337 445 337 379 337 313 c 0
 337 96 339 95 438 82 c 0
 478 77 491 61 491 36 c 0
 491 19 473 -5 425 -5 c 0
 378 -5 337 0 265 0 c 0
 225 0 138 -5 108 -5 c 0
 78 -5 48 8 48 32 c 0
 48 128 190 34 190 182 c 0
 190 270 190 358 190 446 c 0
 190 523 190 625 194 864 c 1
 92 864 l 2
 77 864 64 865 64 904 c 0
 64 946 77 954 92 954 c 2
 199 954 l 1
 199 1361 417 1599 690 1599 c 0
776 1394 m 1
 776 1394 710 1506 609 1506 c 0
 534 1506 339 1435 339 954 c 1
 692 954 l 1
 692 994 l 2
 692 1258 776 1394 776 1394 c 1
EndSplineSet
Ligature2: "liga subtable" f f
LCarets2: 1 0 
EndChar

StartChar: f_i
Encoding: 65537 -1 56
Width: 1046
VWidth: 1000
Flags: MW
HStem: 0 90<341.875 495.88> 864 90<39.0095 178 329 686.58> 952 20G<772 826> 1536 113<512.367 760.5>
VStem: 178 149<98.0557 864 954 1263.43> 718 151<100.09 834.051>
LayerCount: 3
Fore
SplineSet
798 0 m 0
 709 0 680 -5 601 -5 c 0
 571 -5 541 8 541 32 c 0
 541 130 707 15 713 197 c 2
 713 197 718 341 718 368 c 0
 718 453 714 576 712 719 c 0
 711 824 681 866 532 866 c 0
 480 866 413 864 329 864 c 1
 328 638 327 561 327 511 c 2
 327 327 l 2
 327 96 328 100 443 83 c 0
 483 77 496 61 496 36 c 0
 496 19 478 -5 430 -5 c 0
 358 -5 322 0 250 0 c 0
 210 0 123 -5 93 -5 c 0
 63 -5 33 8 33 32 c 0
 33 128 177 34 177 182 c 0
 177 506 178 474 178 506 c 2
 178 864 l 1
 67 864 l 2
 52 864 39 865 39 908 c 0
 39 950 52 954 67 954 c 2
 183 954 l 1
 183 994 l 2
 183 1043 185 1275 298 1424 c 0
 387 1542 530 1649 697 1649 c 0
 824 1649 862 1585 862 1546 c 0
 862 1504 827 1454 768 1454 c 0
 706 1454 656 1536 570 1536 c 0
 422 1536 324 1322 324 989 c 2
 324 954 l 1
 637 954 728 972 816 972 c 0
 836 972 876 956 876 918 c 0
 876 858 869 852 869 368 c 0
 869 117 883 110 930 91 c 0
 1002 62 1003 43 1003 36 c 0
 1003 19 985 -5 937 -5 c 0
 908 -5 816 0 798 0 c 0
EndSplineSet
Ligature2: "liga subtable" f i
LCarets2: 1 0 
EndChar

StartChar: f_l
Encoding: 65538 -1 57
Width: 1099
VWidth: 1000
Flags: MW
HStem: 0 90<360.135 505.646 917.961 1043.52> 864 90<59.0095 198 349 613.992> 1535 113<463.512 680.442>
VStem: 198 149<99.2164 864 954 1311.89> 748 150<103.36 1459.45>
LayerCount: 3
Fore
SplineSet
565 1535 m 0
 393 1535 344 1266 344 1009 c 2
 344 954 l 1
 588 954 l 2
 603 954 614 946 614 910 c 0
 614 865 603 864 588 864 c 2
 349 864 l 1
 348 638 347 561 347 511 c 2
 347 339 l 2
 347 96 350 100 453 87 c 0
 493 82 506 61 506 36 c 0
 506 19 488 -5 440 -5 c 0
 368 -5 342 0 270 0 c 0
 230 0 143 -5 113 -5 c 0
 83 -5 53 8 53 32 c 0
 53 128 197 34 197 182 c 0
 197 506 198 474 198 506 c 2
 198 864 l 1
 87 864 l 2
 72 864 59 865 59 908 c 0
 59 950 72 954 87 954 c 2
 203 954 l 1
 203 1016 l 2
 203 1396 343 1512 408 1565 c 0
 473 1618 535 1648 662 1648 c 0
 735 1648 795 1619 810 1619 c 0
 819 1619 858 1653 879 1653 c 0
 907 1653 909 1635 909 1586 c 2
 909 1546 l 2
 909 1333 898 1546 898 266 c 0
 898 126 925 96 1000 79 c 0
 1039 70 1044 55 1044 33 c 0
 1044 16 1030 -5 982 -5 c 0
 969 -5 887 0 823 0 c 0
 806 0 649 -5 616 -5 c 0
 586 -5 556 8 556 32 c 0
 556 118 748 28 748 187 c 2
 748 1248 l 2
 748 1390 717 1535 565 1535 c 0
EndSplineSet
Ligature2: "liga subtable" f l
LCarets2: 1 0 
EndChar

StartChar: f_f_i
Encoding: 65539 -1 58
Width: 1616
VWidth: 1000
Flags: MW
HStem: 0 90<343.799 507.587> -5 88<896.875 1050.88> 864 90<64.0846 194 339 733 884 1260.36> 952 20G<1347 1414.5> 1511 99<504.602 722.538> 1551 105<1040.23 1321.5>
VStem: 190 147<98.9121 864 954 1229.7> 733 149<98.0557 864 954 1334.97> 1293 151<104.934 834.051>
LayerCount: 3
Fore
SplineSet
796 1379 m 1
 796 1379 730 1511 609 1511 c 0
 528 1511 339 1435 339 954 c 1
 738 954 l 1
 738 994 l 2
 738 1296 796 1379 796 1379 c 1
1359 1454 m 0
 1286 1454 1232 1551 1109 1551 c 0
 961 1551 879 1322 879 989 c 2
 879 954 l 1
 1192 954 1303 972 1391 972 c 0
 1438 972 1451 956 1451 918 c 0
 1451 858 1444 852 1444 368 c 0
 1444 117 1458 110 1505 91 c 0
 1577 62 1578 43 1578 36 c 0
 1578 19 1560 -5 1512 -5 c 0
 1483 -5 1391 0 1373 0 c 0
 1284 0 1255 -5 1176 -5 c 0
 1146 -5 1116 8 1116 32 c 0
 1116 130 1283 26 1288 197 c 2
 1288 197 1293 341 1293 368 c 0
 1293 453 1289 576 1287 719 c 0
 1286 824 1256 866 1107 866 c 0
 1055 866 968 864 884 864 c 1
 883 638 882 561 882 511 c 2
 882 327 l 2
 882 96 883 100 998 83 c 0
 1038 77 1051 61 1051 36 c 0
 1051 19 1033 -5 985 -5 c 0
 913 -5 877 0 805 0 c 0
 765 0 668 -5 638 -5 c 0
 608 -5 578 8 578 32 c 0
 578 128 732 34 732 182 c 0
 732 506 733 474 733 506 c 2
 733 864 l 1
 339 864 l 1
 338 638 337 561 337 511 c 0
 337 445 337 379 337 313 c 0
 337 165 338 117 370 98 c 0
 410 74 511 102 511 36 c 0
 511 19 493 -5 445 -5 c 0
 398 -5 337 0 265 0 c 0
 225 0 118 -5 88 -5 c 0
 58 -5 28 8 28 32 c 0
 28 128 190 34 190 182 c 0
 190 270 190 358 190 446 c 0
 190 523 190 625 194 864 c 1
 92 864 l 2
 77 864 64 865 64 904 c 0
 64 946 77 954 92 954 c 2
 199 954 l 1
 199 1327 339 1454 446 1530 c 0
 519 1583 590 1610 690 1610 c 0
 822 1610 910 1530 910 1530 c 1
 910 1530 1032 1656 1258 1656 c 0
 1385 1656 1447 1592 1447 1546 c 0
 1447 1500 1407 1454 1359 1454 c 0
EndSplineSet
Ligature2: "liga subtable" f f i
LCarets2: 2 0 0 
EndChar

StartChar: f_f_l
Encoding: 65540 -1 59
Width: 1616
VWidth: 1000
Flags: MW
HStem: 0 90<343.799 507.587> -5 88<896.875 1050.88 1445.76 1583.61> 864 90<64.0846 194 339 733 884 1128.99> 1511 99<504.602 722.538> 1535 113<1028.44 1217.44>
VStem: 190 147<98.9121 864 954 1229.7> 733 149<98.0557 864 954 1331.39> 1278 150<100.107 1468.69>
LayerCount: 3
Fore
SplineSet
796 1379 m 1
 796 1379 730 1511 609 1511 c 0
 528 1511 339 1435 339 954 c 1
 738 954 l 1
 738 994 l 2
 738 1296 796 1379 796 1379 c 1
1105 1535 m 0
 969 1535 879 1424 879 989 c 2
 879 954 l 1
 1103 954 l 2
 1118 954 1129 946 1129 910 c 0
 1129 865 1118 864 1103 864 c 2
 884 864 l 1
 883 638 882 561 882 511 c 2
 882 327 l 2
 882 96 883 100 998 83 c 0
 1038 77 1051 61 1051 36 c 0
 1051 19 1033 -5 985 -5 c 0
 913 -5 877 0 805 0 c 0
 765 0 668 -5 638 -5 c 0
 608 -5 578 8 578 32 c 0
 578 128 732 34 732 182 c 0
 732 506 733 474 733 506 c 2
 733 864 l 1
 339 864 l 1
 338 638 337 561 337 511 c 0
 337 445 337 379 337 313 c 0
 337 165 338 117 370 98 c 0
 410 74 511 102 511 36 c 0
 511 19 493 -5 445 -5 c 0
 398 -5 337 0 265 0 c 0
 225 0 118 -5 88 -5 c 0
 58 -5 28 8 28 32 c 0
 28 128 190 34 190 182 c 0
 190 270 190 358 190 446 c 0
 190 523 190 625 194 864 c 1
 92 864 l 2
 77 864 64 865 64 904 c 0
 64 946 77 954 92 954 c 2
 199 954 l 1
 199 1327 339 1454 446 1530 c 0
 519 1583 590 1610 690 1610 c 0
 822 1610 910 1530 910 1530 c 1
 910 1530 1044 1648 1202 1648 c 0
 1275 1648 1325 1619 1340 1619 c 0
 1349 1619 1388 1653 1409 1653 c 0
 1437 1653 1439 1635 1439 1586 c 2
 1439 1546 l 2
 1439 1333 1428 1546 1428 266 c 0
 1428 126 1436 99 1535 79 c 0
 1574 71 1584 55 1584 33 c 0
 1584 16 1570 -5 1522 -5 c 0
 1509 -5 1417 0 1353 0 c 0
 1336 0 1179 -5 1146 -5 c 0
 1116 -5 1086 8 1086 32 c 0
 1086 118 1278 28 1278 187 c 2
 1278 1248 l 2
 1278 1390 1257 1535 1105 1535 c 0
EndSplineSet
Ligature2: "liga subtable" f f l
LCarets2: 2 0 0 
EndChar

StartChar: f_j
Encoding: 65541 -1 60
Width: 1046
VWidth: 1000
Flags: MW
HStem: -546 194<425.753 623.745> 0 90<341.875 495.88> 864 90<39.0095 178 329 686.58> 952 20G<772 826> 1536 113<512.367 760.5>
VStem: 178 149<98.0557 864 954 1263.43> 723 150<-269.984 831.875>
LayerCount: 3
Fore
SplineSet
873 -79 m 2
 873 -130 871 -217 831 -270 c 0
 659 -500 589 -546 491 -546 c 0
 435 -546 405 -506 405 -464 c 0
 405 -381 475 -352 515 -352 c 0
 545 -352 578 -366 609 -366 c 0
 720 -366 723 -212 723 -30 c 0
 723 94 719 576 717 719 c 0
 716 824 681 866 532 866 c 0
 480 866 413 864 329 864 c 1
 328 638 327 561 327 511 c 2
 327 327 l 2
 327 96 328 100 443 83 c 0
 483 77 496 61 496 36 c 0
 496 19 478 -5 430 -5 c 0
 358 -5 322 0 250 0 c 0
 210 0 123 -5 93 -5 c 0
 63 -5 33 8 33 32 c 0
 33 128 177 34 177 182 c 0
 177 506 178 474 178 506 c 2
 178 864 l 1
 67 864 l 2
 52 864 39 865 39 908 c 0
 39 950 52 954 67 954 c 2
 183 954 l 1
 183 994 l 2
 183 1043 185 1275 298 1424 c 0
 387 1542 530 1649 697 1649 c 0
 824 1649 862 1585 862 1546 c 0
 862 1504 827 1454 768 1454 c 0
 706 1454 656 1536 570 1536 c 0
 422 1536 324 1322 324 989 c 2
 324 954 l 1
 637 954 728 972 816 972 c 0
 836 972 876 956 876 918 c 0
 876 892 873 443 873 273 c 2
 873 -79 l 2
EndSplineSet
Ligature2: "liga subtable" f j
LCarets2: 1 0 
EndChar

StartChar: f_f_j
Encoding: 65542 -1 61
Width: 1616
VWidth: 1000
Flags: MW
HStem: -546 194<995.753 1193.75> 0 90<343.799 507.587> -5 88<896.875 1050.88> 864 90<64.0846 194 339 733 884 1263.37> 952 20G<1342 1415> 1511 99<504.228 722.538> 1551 105<1040.23 1321.5>
VStem: 190 147<98.9121 864 954 1212.96> 733 149<98.0557 864 954 1334.97> 1293 150<-269.984 834.051>
LayerCount: 3
Fore
SplineSet
796 1379 m 1
 796 1379 730 1511 609 1511 c 0
 528 1511 339 1435 339 954 c 1
 738 954 l 1
 738 994 l 2
 738 1296 796 1379 796 1379 c 1
1107 866 m 0
 1055 866 968 864 884 864 c 1
 883 638 882 561 882 511 c 2
 882 327 l 2
 882 96 883 100 998 83 c 0
 1038 77 1051 61 1051 36 c 0
 1051 19 1033 -5 985 -5 c 0
 913 -5 877 0 805 0 c 0
 765 0 668 -5 638 -5 c 0
 608 -5 578 8 578 32 c 0
 578 128 732 34 732 182 c 0
 732 506 733 474 733 506 c 2
 733 864 l 1
 339 864 l 1
 338 638 337 561 337 511 c 0
 337 445 337 379 337 313 c 0
 337 165 338 117 370 98 c 0
 410 74 511 102 511 36 c 0
 511 19 493 -5 445 -5 c 0
 398 -5 337 0 265 0 c 0
 225 0 118 -5 88 -5 c 0
 58 -5 28 8 28 32 c 0
 28 128 190 34 190 182 c 0
 190 270 190 358 190 446 c 0
 190 523 190 625 194 864 c 1
 92 864 l 2
 77 864 64 865 64 904 c 0
 64 946 77 954 92 954 c 2
 199 954 l 1
 199 1361 417 1610 690 1610 c 0
 822 1610 910 1530 910 1530 c 1
 910 1530 1032 1656 1258 1656 c 0
 1385 1656 1447 1592 1447 1546 c 0
 1447 1500 1407 1454 1359 1454 c 0
 1286 1454 1232 1551 1109 1551 c 0
 961 1551 879 1322 879 989 c 2
 879 954 l 1
 1192 954 1298 972 1386 972 c 0
 1444 972 1450 956 1450 918 c 0
 1450 892 1443 443 1443 273 c 2
 1443 -79 l 2
 1443 -130 1441 -217 1401 -270 c 0
 1229 -500 1159 -546 1061 -546 c 0
 1005 -546 975 -506 975 -464 c 0
 975 -381 1045 -352 1085 -352 c 0
 1115 -352 1148 -366 1179 -366 c 0
 1290 -366 1293 -212 1293 -30 c 0
 1293 94 1289 576 1287 719 c 0
 1286 824 1256 866 1107 866 c 0
EndSplineSet
Ligature2: "liga subtable" f f j
LCarets2: 2 0 0 
EndChar

StartChar: c_t
Encoding: 65543 -1 62
Width: 1302
VWidth: 0
Flags: W
HStem: 608 288<546.955 755.045>
VStem: 507 288<647.955 856.045>
LayerCount: 3
Fore
SplineSet
507 752 m 0
 507 831 572 896 651 896 c 0
 730 896 795 831 795 752 c 0
 795 673 730 608 651 608 c 0
 572 608 507 673 507 752 c 0
EndSplineSet
LCarets2: 1 0 
Ligature2: "dlig subtable" c t
EndChar

StartChar: s_t
Encoding: 65544 -1 63
Width: 1302
VWidth: 0
Flags: W
HStem: 608 288<546.955 755.045>
VStem: 507 288<647.955 856.045>
LayerCount: 3
Fore
SplineSet
507 752 m 0
 507 831 572 896 651 896 c 0
 730 896 795 831 795 752 c 0
 795 673 730 608 651 608 c 0
 572 608 507 673 507 752 c 0
EndSplineSet
LCarets2: 1 0 
Ligature2: "dlig subtable" s t
EndChar

StartChar: f_b
Encoding: 65545 -1 64
Width: 1720
VWidth: 1000
Flags: MW
HStem: -26 84<935.286 1309.92> 0 90<360.135 505.646> 864 90<59.0095 198 349 613.992> 866 118<1025.35 1286.05> 1535 113<463.512 702.059>
VStem: 198 149<99.2164 864 954 1311.89> 721 160<107.375 487.67> 750 151<843.741 1487.93> 1505 152<281.279 628.997>
LayerCount: 3
Fore
SplineSet
565 1535 m 0
 393 1535 344 1266 344 1009 c 2
 344 954 l 1
 588 954 l 2
 603 954 614 946 614 910 c 0
 614 865 603 864 588 864 c 2
 349 864 l 1
 348 638 347 561 347 511 c 2
 347 339 l 2
 347 96 350 100 453 87 c 0
 493 82 506 61 506 36 c 0
 506 19 488 -5 440 -5 c 0
 368 -5 342 0 270 0 c 0
 230 0 143 -5 113 -5 c 0
 83 -5 53 8 53 32 c 0
 53 128 197 34 197 182 c 0
 197 506 198 474 198 506 c 2
 198 864 l 1
 87 864 l 2
 72 864 59 865 59 908 c 0
 59 950 72 954 87 954 c 2
 203 954 l 1
 203 1016 l 2
 203 1396 343 1512 408 1565 c 0
 473 1618 535 1648 662 1648 c 0
 735 1648 795 1619 810 1619 c 0
 819 1619 858 1653 879 1653 c 0
 904 1653 909 1639 909 1600 c 2
 901 840 l 1
 901 840 1013 984 1193 984 c 0
 1541 984 1657 684 1657 495 c 0
 1657 231 1465 -26 1117 -26 c 0
 1007 -26 915 0 856 0 c 0
 813 0 777 -24 743 -24 c 0
 724 -24 721 -13 721 3 c 0
 721 169 750 325 750 1321 c 0
 750 1412 745 1535 565 1535 c 0
881 243 m 2
 881 128 911 58 1137 58 c 0
 1372 58 1505 238 1505 431 c 0
 1505 689 1316 866 1118 866 c 0
 939 866 881 730 881 682 c 2
 881 243 l 2
EndSplineSet
LCarets2: 1 0 
Ligature2: "liga subtable" f b
EndChar

StartChar: f_h
Encoding: 65546 -1 65
Width: 1744
VWidth: 1000
Flags: MW
HStem: 0 90<360.135 505.646 1208.89 1368.97 1565.84 1674.47> 864 90<59.0095 198 349 613.992> 876 105<1019.46 1269.62> 1535 113<463.512 684.409>
VStem: 198 149<99.2164 864 954 1311.89> 752 152<104.334 806.434 855 1456.11> 1391 162<103.124 715.115>
LayerCount: 3
Fore
SplineSet
565 1535 m 0
 393 1535 344 1266 344 1009 c 2
 344 954 l 1
 588 954 l 2
 603 954 614 946 614 910 c 0
 614 865 603 864 588 864 c 2
 349 864 l 1
 348 638 347 561 347 511 c 2
 347 339 l 2
 347 96 350 100 453 87 c 0
 493 82 506 61 506 36 c 0
 506 19 488 -5 440 -5 c 0
 368 -5 342 0 270 0 c 0
 230 0 143 -5 113 -5 c 0
 83 -5 53 8 53 32 c 0
 53 128 197 34 197 182 c 0
 197 506 198 474 198 506 c 2
 198 864 l 1
 87 864 l 2
 72 864 59 865 59 908 c 0
 59 950 72 954 87 954 c 2
 203 954 l 1
 203 1016 l 2
 203 1396 343 1512 408 1565 c 0
 473 1618 535 1648 662 1648 c 0
 735 1648 792 1619 807 1619 c 0
 816 1619 855 1653 876 1653 c 0
 904 1653 906 1635 906 1586 c 2
 904 855 l 1
 904 855 1021 981 1198 981 c 0
 1262 981 1479 952 1532 649 c 0
 1547 564 1553 367 1553 218 c 0
 1553 125 1579 99 1606 88 c 0
 1628 79 1675 77 1675 36 c 0
 1675 19 1657 -5 1609 -5 c 0
 1537 -5 1502 0 1430 0 c 0
 1390 0 1303 -5 1273 -5 c 0
 1243 -5 1208 8 1208 32 c 0
 1208 66 1231 77 1260 82 c 0
 1340 97 1391 70 1391 302 c 0
 1391 650 1364 876 1130 876 c 0
 1058 876 904 818 904 721 c 0
 904 686 897 580 897 369 c 0
 897 258 901 166 902 159 c 0
 924 35 1090 124 1090 36 c 0
 1090 19 1072 -5 1024 -5 c 0
 960 -5 898 0 825 0 c 0
 792 0 691 -5 642 -5 c 0
 612 -5 582 8 582 32 c 0
 582 136 742 15 742 206 c 0
 742 291 752 501 752 1038 c 0
 752 1380 744 1535 565 1535 c 0
EndSplineSet
LCarets2: 1 0 
Ligature2: "liga subtable" f h
EndChar

StartChar: f_k
Encoding: 65547 -1 66
Width: 1652
VWidth: 0
Flags: MW
HStem: 0 90<360.135 505.646 917.125 1052.26 1438.64 1582.42> 864 90<59.0095 198 349 613.992 1340.86 1532.54> 1535 113<463.512 675.182>
VStem: 198 149<99.2164 864 954 1311.89> 744 154<99.1682 378 496 1464.91>
LayerCount: 3
Fore
SplineSet
565 1535 m 0
 393 1535 344 1266 344 1009 c 2
 344 954 l 1
 588 954 l 2
 603 954 614 946 614 910 c 0
 614 865 603 864 588 864 c 2
 349 864 l 1
 348 638 347 561 347 511 c 2
 347 339 l 2
 347 96 350 100 453 87 c 0
 493 82 506 61 506 36 c 0
 506 19 488 -5 440 -5 c 0
 368 -5 342 0 270 0 c 0
 230 0 143 -5 113 -5 c 0
 83 -5 53 8 53 32 c 0
 53 128 197 34 197 182 c 0
 197 506 198 474 198 506 c 2
 198 864 l 1
 87 864 l 2
 72 864 59 865 59 908 c 0
 59 950 72 954 87 954 c 2
 203 954 l 1
 203 1016 l 2
 203 1396 343 1512 408 1565 c 0
 473 1618 535 1648 662 1648 c 0
 735 1648 795 1619 810 1619 c 0
 819 1619 858 1653 879 1653 c 0
 904 1653 909 1639 909 1600 c 2
 896 496 l 1
 1061 669 1191 785 1191 830 c 0
 1191 891 1088 866 1088 918 c 0
 1088 927 1093 951 1150 951 c 0
 1166 951 1196 946 1304 946 c 0
 1405 946 1455 951 1473 951 c 0
 1508 951 1533 947 1533 916 c 0
 1533 871 1494 881 1410 859 c 0
 1354 844 1259 751 1185 675 c 2
 1079 565 l 1
 1305 279 l 1
 1471 73 1503 87 1543 77 c 0
 1560 73 1583 61 1583 36 c 0
 1583 19 1565 -5 1517 -5 c 0
 1481 -5 1428 0 1338 0 c 0
 1322 0 1208 -5 1175 -5 c 0
 1145 -5 1115 8 1115 32 c 0
 1115 102 1224 54 1224 117 c 0
 1224 178 1018 421 983 466 c 1
 898 378 l 1
 903 94 910 100 1000 78 c 0
 1024 72 1053 61 1053 36 c 0
 1053 19 1035 -5 987 -5 c 0
 915 -5 895 0 828 0 c 0
 789 0 666 -5 623 -5 c 0
 593 -5 563 8 563 32 c 0
 563 116 743 20 744 203 c 2
 749 1271 l 2
 749 1302 746 1535 565 1535 c 0
EndSplineSet
LCarets2: 1 0 
Ligature2: "liga subtable" f k
EndChar

StartChar: f_f_b
Encoding: 65548 -1 67
Width: 2246
VWidth: 0
Flags: MW
HStem: -26 84<1470.29 1844.92> 0 90<343.799 507.587> -5 88<896.875 1050.88> 864 90<64.0846 194 339 733 884 1128.99> 866 118<1560.35 1821.05> 1511 99<504.602 722.538> 1535 113<1028.44 1217.9>
VStem: 190 147<98.9121 864 954 1229.7> 733 149<98.0557 864 954 1331.39> 1256 160<107.375 493.967> 1278 161<840 1474.07> 2040 152<281.279 628.997>
LayerCount: 3
Fore
SplineSet
1278 1258 m 0
 1278 1405 1251 1535 1105 1535 c 0
 969 1535 879 1424 879 989 c 2
 879 954 l 1
 1103 954 l 2
 1118 954 1129 946 1129 910 c 0
 1129 865 1118 864 1103 864 c 2
 884 864 l 1
 883 638 882 561 882 511 c 2
 882 327 l 2
 882 96 883 100 998 83 c 0
 1038 77 1051 61 1051 36 c 0
 1051 19 1033 -5 985 -5 c 0
 913 -5 877 0 805 0 c 0
 765 0 668 -5 638 -5 c 0
 608 -5 578 8 578 32 c 0
 578 128 732 34 732 182 c 0
 732 506 733 474 733 506 c 2
 733 864 l 1
 339 864 l 1
 338 638 337 561 337 511 c 0
 337 445 337 379 337 313 c 0
 337 165 338 117 370 98 c 0
 410 74 511 102 511 36 c 0
 511 19 493 -5 445 -5 c 0
 398 -5 337 0 265 0 c 0
 225 0 118 -5 88 -5 c 0
 58 -5 28 8 28 32 c 0
 28 128 190 34 190 182 c 0
 190 270 190 358 190 446 c 0
 190 523 190 625 194 864 c 1
 92 864 l 2
 77 864 64 865 64 904 c 0
 64 946 77 954 92 954 c 2
 199 954 l 1
 199 1327 339 1454 446 1530 c 0
 519 1583 590 1610 690 1610 c 0
 822 1610 910 1530 910 1530 c 1
 910 1530 1044 1648 1202 1648 c 0
 1275 1648 1325 1619 1340 1619 c 0
 1349 1619 1388 1653 1409 1653 c 0
 1432 1653 1439 1641 1439 1610 c 0
 1439 1602 1439 1594 1439 1586 c 2
 1436 840 l 1
 1436 840 1548 984 1728 984 c 0
 2076 984 2192 684 2192 495 c 0
 2192 231 2000 -26 1652 -26 c 0
 1542 -26 1450 0 1391 0 c 0
 1348 0 1312 -24 1278 -24 c 0
 1259 -24 1256 -13 1256 3 c 0
 1256 193 1278 309 1278 1258 c 0
1416 243 m 2
 1416 128 1446 58 1672 58 c 0
 1907 58 2040 238 2040 431 c 0
 2040 689 1851 866 1653 866 c 0
 1474 866 1416 730 1416 682 c 2
 1416 243 l 2
796 1379 m 1
 796 1379 730 1511 609 1511 c 0
 528 1511 339 1435 339 954 c 1
 738 954 l 1
 738 994 l 2
 738 1296 796 1379 796 1379 c 1
EndSplineSet
LCarets2: 2 0 0 
Ligature2: "liga subtable" f f b
EndChar

StartChar: f_f_h
Encoding: 65549 -1 68
Width: 2240
VWidth: 1000
Flags: MW
HStem: 0 90<343.799 507.587> -5 88<896.875 1050.88 1741.41 1898.42 2100.56 2207.86> 864 90<64.0846 194 339 733 884 1128.99> 876 105<1552.46 1802.62> 1511 99<504.602 722.538> 1535 113<1028.44 1221.77>
VStem: 190 147<98.9121 864 954 1229.7> 733 149<98.0557 864 954 1331.39> 1285 152<104.334 806.434 855 1463.46> 1924 162<103.124 715.115>
LayerCount: 3
Fore
SplineSet
1115 32 m 0
 1115 136 1275 15 1275 206 c 0
 1275 291 1285 501 1285 1038 c 0
 1285 1405 1274 1535 1105 1535 c 0
 969 1535 879 1424 879 989 c 2
 879 954 l 1
 1103 954 l 2
 1118 954 1129 946 1129 910 c 0
 1129 865 1118 864 1103 864 c 2
 884 864 l 1
 883 638 882 561 882 511 c 2
 882 327 l 2
 882 96 883 100 998 83 c 0
 1038 77 1051 61 1051 36 c 0
 1051 19 1033 -5 985 -5 c 0
 913 -5 877 0 805 0 c 0
 765 0 668 -5 638 -5 c 0
 608 -5 578 8 578 32 c 0
 578 128 732 34 732 182 c 0
 732 506 733 474 733 506 c 2
 733 864 l 1
 339 864 l 1
 338 638 337 561 337 511 c 0
 337 445 337 379 337 313 c 0
 337 165 338 117 370 98 c 0
 410 74 511 102 511 36 c 0
 511 19 493 -5 445 -5 c 0
 398 -5 337 0 265 0 c 0
 225 0 118 -5 88 -5 c 0
 58 -5 28 8 28 32 c 0
 28 128 190 34 190 182 c 0
 190 270 190 358 190 446 c 0
 190 523 190 625 194 864 c 1
 92 864 l 2
 77 864 64 865 64 904 c 0
 64 946 77 954 92 954 c 2
 199 954 l 1
 199 1327 339 1454 446 1530 c 0
 519 1583 590 1610 690 1610 c 0
 822 1610 910 1530 910 1530 c 1
 910 1530 1044 1648 1202 1648 c 0
 1275 1648 1325 1619 1340 1619 c 0
 1349 1619 1388 1653 1409 1653 c 0
 1437 1653 1439 1635 1439 1586 c 2
 1437 855 l 1
 1437 855 1554 981 1731 981 c 0
 1795 981 2012 952 2065 649 c 0
 2080 564 2086 367 2086 218 c 0
 2086 125 2112 99 2139 88 c 0
 2161 79 2208 77 2208 36 c 0
 2208 19 2190 -5 2142 -5 c 0
 2070 -5 2035 0 1963 0 c 0
 1923 0 1836 -5 1806 -5 c 0
 1776 -5 1741 8 1741 32 c 0
 1741 66 1764 77 1793 82 c 0
 1873 97 1924 70 1924 302 c 0
 1924 650 1897 876 1663 876 c 0
 1591 876 1437 818 1437 721 c 0
 1437 686 1430 580 1430 369 c 0
 1430 258 1434 166 1435 159 c 0
 1457 35 1623 124 1623 36 c 0
 1623 19 1605 -5 1557 -5 c 0
 1493 -5 1431 0 1358 0 c 0
 1325 0 1224 -5 1175 -5 c 0
 1145 -5 1115 8 1115 32 c 0
796 1379 m 1
 796 1379 730 1511 609 1511 c 0
 528 1511 339 1435 339 954 c 1
 738 954 l 1
 738 994 l 2
 738 1296 796 1379 796 1379 c 1
EndSplineSet
LCarets2: 2 0 0 
Ligature2: "liga subtable" f f h
EndChar

StartChar: f_f_k
Encoding: 65550 -1 69
Width: 2212
VWidth: 0
Flags: MW
HStem: 0 90<343.799 507.587> -5 88<896.875 1050.88 1441 1602.79 1976.65 2112.85> 864 90<64.0846 194 339 733 884 1128.99 1870.86 2062.54> 1511 99<504.602 722.538> 1535 113<1028.44 1230.95>
VStem: 190 147<98.9121 864 954 1229.7> 733 149<98.0557 864 954 1331.39> 1274 154<98.9817 378 496 1492.5>
LayerCount: 3
Fore
SplineSet
1278 1342 m 0
 1278 1486 1209 1535 1105 1535 c 0
 969 1535 879 1424 879 989 c 2
 879 954 l 1
 1103 954 l 2
 1118 954 1129 946 1129 910 c 0
 1129 865 1118 864 1103 864 c 2
 884 864 l 1
 883 638 882 561 882 511 c 2
 882 327 l 2
 882 96 883 100 998 83 c 0
 1038 77 1051 61 1051 36 c 0
 1051 19 1033 -5 985 -5 c 0
 913 -5 877 0 805 0 c 0
 765 0 668 -5 638 -5 c 0
 608 -5 578 8 578 32 c 0
 578 128 732 34 732 182 c 0
 732 506 733 474 733 506 c 2
 733 864 l 1
 339 864 l 1
 338 638 337 561 337 511 c 0
 337 445 337 379 337 313 c 0
 337 165 338 117 370 98 c 0
 410 74 511 102 511 36 c 0
 511 19 493 -5 445 -5 c 0
 398 -5 337 0 265 0 c 0
 225 0 118 -5 88 -5 c 0
 58 -5 28 8 28 32 c 0
 28 128 190 34 190 182 c 0
 190 270 190 358 190 446 c 0
 190 523 190 625 194 864 c 1
 92 864 l 2
 77 864 64 865 64 904 c 0
 64 946 77 954 92 954 c 2
 199 954 l 1
 199 1327 339 1454 446 1530 c 0
 519 1583 590 1610 690 1610 c 0
 822 1610 910 1530 910 1530 c 1
 910 1530 1044 1648 1202 1648 c 0
 1275 1648 1325 1619 1340 1619 c 0
 1349 1619 1388 1653 1409 1653 c 0
 1436 1653 1439 1617 1439 1568 c 2
 1426 496 l 1
 1591 669 1721 785 1721 830 c 0
 1721 891 1618 866 1618 918 c 0
 1618 927 1623 951 1680 951 c 0
 1696 951 1726 946 1834 946 c 0
 1935 946 1985 951 2003 951 c 0
 2038 951 2063 947 2063 916 c 0
 2063 871 2024 881 1940 859 c 0
 1884 844 1789 751 1715 675 c 2
 1609 565 l 1
 1835 279 l 1
 2001 73 2033 87 2073 77 c 0
 2090 73 2113 61 2113 36 c 0
 2113 19 2095 -5 2047 -5 c 0
 2011 -5 1958 0 1868 0 c 0
 1852 0 1738 -5 1705 -5 c 0
 1675 -5 1645 8 1645 32 c 0
 1645 102 1754 54 1754 117 c 0
 1754 178 1548 421 1513 466 c 1
 1428 378 l 1
 1433 94 1417 89 1550 78 c 0
 1575 76 1603 61 1603 36 c 0
 1603 19 1585 -5 1537 -5 c 0
 1465 -5 1425 0 1358 0 c 0
 1319 0 1216 -5 1173 -5 c 0
 1143 -5 1113 8 1113 32 c 0
 1113 116 1273 30 1274 203 c 2
 1279 1269 l 2
 1279 1287 1278 1313 1278 1342 c 0
796 1379 m 1
 796 1379 730 1511 609 1511 c 0
 528 1511 339 1435 339 954 c 1
 738 954 l 1
 738 994 l 2
 738 1296 796 1379 796 1379 c 1
EndSplineSet
LCarets2: 2 0 0 
Ligature2: "liga subtable" f f k
EndChar
